<?xml version="1.0" standalone="no"?>
<!DOCTYPE svg PUBLIC "-//W3C//DTD SVG 20010904//EN"
 "http://www.w3.org/TR/2001/REC-SVG-20010904/DTD/svg10.dtd">
<svg version="1.0" xmlns="http://www.w3.org/2000/svg"
 width="130.000000pt" height="64.000000pt" viewBox="0 0 130.000000 64.000000"
 preserveAspectRatio="xMidYMid meet">

<g transform="translate(0.000000,64.000000) scale(0.100000,-0.100000)"
fill="#000000" stroke="none">
<path d="M318 555 c-5 -5 -35 -11 -71 -14 -5 -1 -6 -5 -3 -10 4 -5 -2 -7 -11
-5 -11 3 -34 -10 -58 -32 -22 -20 -34 -33 -27 -29 6 3 12 1 12 -4 0 -6 -6 -11
-13 -11 -8 0 -19 -12 -25 -26 -7 -14 -8 -23 -4 -20 5 3 9 -1 9 -9 0 -8 -4 -12
-8 -9 -18 11 -22 -49 -5 -77 15 -25 15 -28 1 -23 -14 6 -14 3 -3 -22 7 -16 17
-32 23 -36 5 -4 7 -8 2 -8 -4 0 0 -8 9 -17 8 -10 24 -29 35 -43 11 -14 18 -18
14 -10 -5 12 -4 12 7 -1 18 -22 57 -41 68 -34 6 3 10 2 10 -4 0 -6 65 -9 178
-8 l177 2 3 143 3 142 -155 0 c-146 0 -199 -8 -217 -33 -9 -12 2 -65 16 -77 7
-6 62 -13 121 -15 59 -3 109 -7 112 -10 3 -2 0 -10 -6 -17 -8 -10 -39 -12
-122 -8 -110 5 -112 6 -136 35 -14 17 -29 29 -35 27 -6 -1 -6 6 2 19 6 12 7
24 3 28 -5 3 -10 13 -12 21 -2 8 -1 12 3 8 4 -4 19 5 34 18 41 40 62 44 231
44 l158 0 -1 63 -1 63 -155 3 c-86 1 -159 0 -163 -4z m-115 -70 c4 -8 3 -16
-1 -19 -4 -3 -9 4 -9 15 -2 23 3 25 10 4z m85 -160 c-3 -3 -9 2 -12 12 -6 14
-5 15 5 6 7 -7 10 -15 7 -18z"/>
</g>
</svg>
